# xmcd
#
# Track frame offsets:
# 150
# 14832
# 29055
# 44068
# 64142
# 86775
# 101972
# 116621
# 131389
# 152872
# 173577
# 195971
# 211752
# 226353
# 236451
#
# Disc length: 3424 seconds
#
#
# Revision: 0
# Processed by: cddbd v1.5PL3 Copyright (c) Steve Scherf et al.
# Submitted via: FreeRIP 2.60 
#
DISCID=d00d5e0f
DTITLE=Sweet Port Blues - Someday Sometime
DYEAR=1900
DGENRE=Blues
TTITLE0=Army Life
TTITLE1=Hesitation Blues
TTITLE2=Saint James infermary
TTITLE3=Suger Bee
TTITLE4=Quit my Ramblin'
TTITLE5=Blues voor Greetje
TTITLE6=Franklin' Roosevelt's back again
TTITLE7=The Coo Coo bird
TTITLE8=My Babe
TTITLE9=K.C. Moan
TTITLE10=Walk right in
TTITLE11=Drive to Mexico
TTITLE12=They go Wild
TTITLE13=Sixteen tons
TTITLE14=Jesus on the mainline
EXTD=
EXTT0=
EXTT1=
EXTT2=
EXTT3=
EXTT4=
EXTT5=
EXTT6=
EXTT7=
EXTT8=
EXTT9=
EXTT10=
EXTT11=
EXTT12=
EXTT13=
EXTT14=
PLAYORDER=
